<?xml version="1.0" encoding="UTF-8"?>
<svg width="1600" height="900" viewBox="0 0 1600 900" fill="none" xmlns="http://www.w3.org/2000/svg">
  <rect width="1600" height="900" fill="#000" />
  <g opacity="0.08">
    <rect x="80" y="80" width="420" height="260" rx="18" fill="#00D2FF" />
    <rect x="220" y="180" width="420" height="260" rx="18" fill="#09A8A8" />
    <circle cx="1300" cy="180" r="120" fill="#00D2FF" />
    <circle cx="1200" cy="300" r="80" fill="#09A8A8" />
  </g>
  <g opacity="0.06" fill="#fff">
    <path d="M860 220h120v20H860z" />
    <path d="M860 260h80v12h-80z" />
    <rect x="940" y="200" width="240" height="160" rx="12" />
  </g>
  <g transform="translate(300,420)" opacity="0.09" fill="#00d2ff">
    <rect x="0" y="0" width="380" height="220" rx="14" />
    <path d="M40 36h56v14H40zM40 66h200v10H40z" fill="#000" opacity="0.06" />
  </g>
  <!-- medical cross -->
  <g transform="translate(1100,520)" opacity="0.12">
    <rect x="0" y="40" width="80" height="160" rx="12" fill="#00d2ff" />
    <rect x="-40" y="80" width="160" height="80" rx="12" fill="#00d2ff" />
  </g>
  <!-- subtle molecules -->
  <g opacity="0.06" fill="#09a8a8">
    <circle cx="1400" cy="720" r="22" />
    <circle cx="1460" cy="760" r="14" />
    <circle cx="1320" cy="760" r="10" />
    <path d="M1400 720 L1460 760" stroke="#09a8a8" stroke-width="2" opacity="0.05" />
  </g>
</svg>
